<?xml version="1.0" encoding="UTF-8" standalone="no"?>
<!DOCTYPE svg PUBLIC "-//W3C//DTD SVG 1.1//EN" "http://www.w3.org/Graphics/SVG/1.1/DTD/svg11.dtd">
<svg width="100%" height="100%" viewBox="0 0 360 360" version="1.1" xmlns="http://www.w3.org/2000/svg" xmlns:xlink="http://www.w3.org/1999/xlink" xml:space="preserve" xmlns:serif="http://www.serif.com/" style="fill-rule:evenodd;clip-rule:evenodd;stroke-linejoin:round;stroke-miterlimit:2;">
    <g transform="matrix(1,0,0,1,0,-800)">
        <g id="favicon" transform="matrix(0.5,0,0,0.5,410,159.5)">
            <rect x="-820" y="1281" width="720" height="720" style="fill:none;"/>
            <clipPath id="_clip1">
                <rect x="-820" y="1281" width="720" height="720"/>
            </clipPath>
            <g clip-path="url(#_clip1)">
                <g transform="matrix(8.67357,0,0,8.67019,6218.65,-9898.88)">
                    <g transform="matrix(1.0072,0,0,1,-971.441,1281)">
                        <path d="M200,9.983C216.2,9.983 227.015,19.298 232.911,28.766C238.808,38.234 243.477,55.71 235.381,66.791C233.662,69.135 231.489,71.136 229.02,72.683C227.723,73.496 225.848,74.542 224.083,74.606C220.104,74.75 209.95,74.764 200,74.736C190.05,74.764 179.896,74.75 175.917,74.606C174.152,74.542 172.277,73.496 170.98,72.683C168.511,71.136 166.338,69.135 164.619,66.791C156.523,55.71 161.192,38.234 167.089,28.766C172.985,19.298 183.8,9.983 200,9.983" style="fill:rgb(255,223,0);"/>
                    </g>
                    <g transform="matrix(0.157416,0,0,0.15629,-877.545,1270.54)">
                        <path d="M539.274,490.847C525.12,483.498 506.852,462.538 497.87,439.493C489.364,417.489 490.101,389.124 498.498,361.409C511.261,319.283 541.88,278.452 587.124,263.201C636.134,246.677 674.49,266.965 711.118,293.81C751.112,323.122 789.233,360.048 834.466,373.694C854.698,379.799 870.409,377.958 882.262,371.506C894.367,364.917 902.761,353.309 907.581,338.695C916.177,312.629 913.178,276.515 902.594,247.504C900.78,242.532 895.3,239.978 890.364,241.805C885.427,243.632 882.892,249.152 884.706,254.124C893.822,279.113 896.899,310.192 889.494,332.644C886.314,342.29 881.19,350.271 873.201,354.62C864.958,359.107 854.005,359.552 839.935,355.306C796.666,342.252 760.588,306.328 722.332,278.29C680.709,247.784 636.767,226.222 581.075,244.999C529.84,262.269 494.723,308.101 480.27,355.807C470.523,387.98 470.236,420.91 480.12,446.482C490.948,474.263 513.495,499.057 530.542,507.909C535.216,510.336 540.968,508.484 543.377,503.776C545.787,499.067 543.949,493.274 539.274,490.847Z" style="fill:rgb(10,10,10);"/>
                    </g>
                    <g transform="matrix(1.0072,0,0,1,-971.441,1281)">
                        <path d="M200,8.478C216.819,8.478 228.055,18.136 234.178,27.966C237.836,33.84 241.034,42.697 241.202,51.317C241.316,57.208 240.018,62.984 236.583,67.686C234.752,70.182 232.439,72.314 229.809,73.962C228.324,74.892 226.157,76.037 224.137,76.11C220.148,76.255 209.97,76.27 200.004,76.242C190.03,76.27 179.852,76.255 175.863,76.11C173.843,76.037 171.676,74.892 170.191,73.962C167.561,72.314 165.248,70.182 163.415,67.683C159.982,62.984 158.684,57.208 158.798,51.317C158.966,42.697 162.164,33.84 165.822,27.966C171.945,18.136 183.181,8.478 200,8.478ZM200,11.489C184.42,11.489 174.026,20.46 168.355,29.566C164.937,35.053 161.943,43.324 161.787,51.375C161.686,56.598 162.78,61.733 165.821,65.897C167.429,68.089 169.461,69.958 171.77,71.405C172.879,72.1 174.462,73.046 175.971,73.101C179.94,73.245 190.07,73.259 200.004,73.231C209.93,73.259 220.06,73.245 224.029,73.101C225.538,73.046 227.121,72.1 228.23,71.405C230.539,69.958 232.571,68.089 234.177,65.899C237.22,61.733 238.314,56.598 238.213,51.375C238.057,43.324 235.063,35.053 231.645,29.566C225.974,20.46 215.58,11.489 200,11.489Z" style="fill:rgb(10,10,10);"/>
                    </g>
                    <g transform="matrix(1.0072,0,0,1,-971.441,1281)">
                        <path d="M176.294,77.012C177.247,81.576 179.779,85.811 184.39,87.406C189.251,89.094 194.624,89.969 200,90.016L200,90.016C205.376,89.969 210.749,89.094 215.61,87.406C220.221,85.812 222.753,81.576 223.706,77.013L223.706,77.037C224.19,74.63 224.722,69.917 223.409,67.916C222.174,66.041 219.595,64.478 217.657,63.4C212.333,60.402 206.073,59.245 200,59.196L200,59.195C193.927,59.244 187.667,60.402 182.343,63.399C180.405,64.478 177.826,66.041 176.591,67.916C175.278,69.917 175.81,74.63 176.294,77.037" style="fill:rgb(255,218,196);"/>
                    </g>
                    <g transform="matrix(1.0072,0,0,1,-971.441,1281)">
                        <path d="M200.012,57.69L200.012,57.69C206.334,57.741 212.845,58.965 218.38,62.082C220.507,63.265 223.3,65.027 224.656,67.086C225.302,68.072 225.645,69.576 225.714,71.235C225.803,73.383 225.48,75.801 225.171,77.336C225.161,77.384 225.149,77.432 225.135,77.478C224.049,82.494 221.172,87.074 216.097,88.829C211.089,90.568 205.553,91.473 200.013,91.521L199.987,91.521L199.987,91.521C194.447,91.473 188.911,90.568 183.905,88.83C178.828,87.074 175.95,82.493 174.864,77.475C174.85,77.43 174.839,77.384 174.829,77.336C174.52,75.801 174.197,73.383 174.286,71.235C174.355,69.576 174.698,68.071 175.345,67.084C176.7,65.026 179.493,63.265 181.613,62.085C187.155,58.965 193.666,57.741 199.988,57.69L200.012,57.69ZM199.994,60.701C194.175,60.75 188.173,61.841 183.065,64.717C181.316,65.691 178.951,67.055 177.838,68.746C177.434,69.362 177.316,70.325 177.273,71.361C177.197,73.195 177.469,75.252 177.734,76.609C177.743,76.64 177.75,76.671 177.757,76.702C178.603,80.754 180.782,84.567 184.877,85.982C189.588,87.618 194.796,88.464 200.006,88.51C205.212,88.463 210.416,87.617 215.125,85.982C219.218,84.567 221.397,80.754 222.243,76.703C222.25,76.671 222.257,76.64 222.266,76.61C222.531,75.253 222.803,73.196 222.727,71.361C222.684,70.325 222.566,69.362 222.163,68.748C221.049,67.055 218.684,65.691 216.928,64.714C211.823,61.839 205.817,60.749 199.994,60.701Z" style="fill:rgb(10,10,10);"/>
                    </g>
                    <g id="path1640" transform="matrix(1.01763,-4.35038e-19,4.38171e-19,-1.01391,-733.456,1338.53)">
                        <path d="M-26.888,-12.11C-27.071,-12.584 -27.354,-12.759 -27.667,-12.76C-27.981,-12.761 -28.259,-12.585 -28.445,-12.107C-28.591,-11.737 -28.683,-11.136 -28.685,-10.618C-28.687,-10.088 -28.609,-9.497 -28.461,-9.122C-28.276,-8.66 -27.989,-8.471 -27.682,-8.47C-27.37,-8.469 -27.074,-8.699 -26.888,-9.167C-26.739,-9.539 -26.665,-10.087 -26.664,-10.612C-26.662,-11.133 -26.743,-11.738 -26.888,-12.11M-43.396,-12.107C-43.582,-12.585 -43.859,-12.761 -44.174,-12.76C-44.486,-12.759 -44.77,-12.584 -44.953,-12.11C-45.098,-11.738 -45.179,-11.133 -45.177,-10.612C-45.176,-10.087 -45.102,-9.539 -44.953,-9.167C-44.767,-8.699 -44.471,-8.469 -44.159,-8.47C-43.852,-8.471 -43.564,-8.66 -43.38,-9.122C-43.23,-9.497 -43.154,-10.088 -43.156,-10.618C-43.158,-11.136 -43.25,-11.737 -43.396,-12.107" style="fill:white;fill-rule:nonzero;"/>
                    </g>
                    <g id="path16401" serif:id="path1640" transform="matrix(1.01763,-4.35038e-19,4.38171e-19,-1.01391,-733.456,1338.53)">
                        <path d="M-26.888,-12.11C-27.071,-12.584 -27.354,-12.759 -27.667,-12.76C-27.981,-12.761 -28.259,-12.585 -28.445,-12.107C-28.591,-11.737 -28.683,-11.136 -28.685,-10.618C-28.687,-10.088 -28.609,-9.497 -28.461,-9.122C-28.276,-8.66 -27.989,-8.471 -27.682,-8.47C-27.37,-8.469 -27.074,-8.699 -26.888,-9.167C-26.739,-9.539 -26.665,-10.087 -26.664,-10.612C-26.662,-11.133 -26.743,-11.738 -26.888,-12.11M-27.624,-7.594C-29.611,-7.41 -29.608,-10.586 -29.608,-14.25C-29.608,-17.913 -29.313,-20.9 -27.569,-20.882C-25.74,-20.861 -25.505,-17.771 -25.505,-14.11C-25.505,-10.447 -25.897,-7.752 -27.624,-7.594M-43.396,-12.107C-43.582,-12.585 -43.859,-12.761 -44.174,-12.76C-44.486,-12.759 -44.77,-12.584 -44.953,-12.11C-45.098,-11.738 -45.179,-11.133 -45.177,-10.612C-45.176,-10.087 -45.102,-9.539 -44.953,-9.167C-44.767,-8.699 -44.471,-8.469 -44.159,-8.47C-43.852,-8.471 -43.564,-8.66 -43.38,-9.122C-43.23,-9.497 -43.154,-10.088 -43.156,-10.618C-43.158,-11.136 -43.25,-11.737 -43.396,-12.107M-44.217,-7.594C-45.943,-7.752 -46.336,-10.447 -46.336,-14.11C-46.336,-17.771 -46.101,-20.861 -44.271,-20.882C-42.527,-20.9 -42.232,-17.913 -42.232,-14.25C-42.232,-10.586 -42.229,-7.41 -44.217,-7.594" style="fill:rgb(10,10,10);fill-rule:nonzero;"/>
                    </g>
                </g>
            </g>
        </g>
    </g>
</svg>
