<svg width="35px" height="35px" viewBox="0 0 720 720" version="1.1" xmlns="http://www.w3.org/2000/svg" xmlns:xlink="http://www.w3.org/1999/xlink" xml:space="preserve" xmlns:serif="http://www.serif.com/" style="fill-rule:evenodd;clip-rule:evenodd;stroke-linejoin:round;stroke-miterlimit:2;">
    <g id="logo-symbol-yellow" transform="matrix(1,0,0,1,820,-1281)">
        <rect x="-820" y="1281" width="720" height="720" style="fill:none;"/>
        <clipPath id="_clip1">
            <rect x="-820" y="1281" width="720" height="720"/>
        </clipPath>
        <g clip-path="url(#_clip1)">
            <g transform="matrix(8.67357,0,0,8.67019,-893.679,1207.49)">
                <g transform="matrix(1.0072,0,0,1,-151.441,0.00032421)">
                    <path d="M200,9.983C216.2,9.983 227.015,19.298 232.911,28.766C238.808,38.234 243.477,55.71 235.381,66.791C233.662,69.135 231.489,71.136 229.02,72.683C227.723,73.496 225.848,74.542 224.083,74.606C220.104,74.75 209.95,74.764 200,74.736C190.05,74.764 179.896,74.75 175.917,74.606C174.152,74.542 172.277,73.496 170.98,72.683C168.511,71.136 166.338,69.135 164.619,66.791C156.523,55.71 161.192,38.234 167.089,28.766C172.985,19.298 183.8,9.983 200,9.983" style="fill:rgb(255,223,0);"/>
                </g>
                <g transform="matrix(1,0,0,1,-300,0)">
                    <path d="M380.208,22.285C381.813,24.125 383.217,26.042 384.424,27.966C385.474,29.64 386.486,31.555 387.401,33.64C387.683,35.807 387.71,37.987 387.434,39.981C386.858,44.155 384.932,47.518 381.763,49.08C379.651,50.121 376.893,50.442 373.38,49.389C366.104,47.21 359.941,41.36 353.508,36.678C348.138,32.771 342.543,29.7 335.358,32.106C328.71,34.33 324.247,40.318 322.372,46.463C321.157,50.444 321.006,54.517 322.234,57.674C323.503,60.905 326.039,63.879 328.038,64.909L325.279,70.261C322.366,68.76 318.478,64.583 316.626,59.866C314.961,55.591 314.971,50.085 316.612,44.705C319.022,36.81 324.906,29.253 333.446,26.395C342.743,23.283 350.103,26.753 357.051,31.809C362.935,36.091 368.453,41.627 375.108,43.621C376.78,44.122 378.096,44.175 379.101,43.679C380.61,42.935 381.195,41.144 381.47,39.157C381.879,36.194 381.379,32.7 380.304,29.775C380.294,29.747 380.284,29.719 380.275,29.691C380.275,29.691 379,25.717 377.786,24.074L380.208,22.285Z" style="fill:rgb(14,14,11);"/>
                </g>
                <g transform="matrix(0.157416,0,0,0.15629,-57.5448,-10.4629)">
                    <path d="M537.829,493.67C523.197,486.073 504.22,464.478 494.935,440.653C486.199,418.056 486.862,388.935 495.482,360.482C508.524,317.433 539.888,275.774 586.123,260.189C636.238,243.293 675.519,263.792 712.974,291.242C752.68,320.343 790.463,357.103 835.371,370.651C854.583,376.449 869.508,374.839 880.763,368.712C892.187,362.494 900.04,351.486 904.588,337.694C912.987,312.226 909.975,276.945 899.634,248.599C898.421,245.273 894.754,243.564 891.451,244.787C888.148,246.009 886.452,249.702 887.666,253.029C897.025,278.683 900.088,310.595 892.487,333.645C889.035,344.113 883.37,352.694 874.7,357.414C865.861,362.226 854.119,362.902 839.03,358.349C795.437,345.197 759.02,309.107 720.476,280.858C679.68,250.958 636.662,229.607 582.076,248.011C531.832,264.946 497.46,309.951 483.286,356.734C473.762,388.169 473.401,420.344 483.059,445.33C493.58,472.322 515.419,496.483 531.986,505.086C535.114,506.709 538.962,505.47 540.575,502.32C542.187,499.17 540.957,495.294 537.829,493.67Z" style="fill:white;"/>
                </g>
                <g transform="matrix(1.0072,0,0,1,-151.441,0.00032421)">
                    <path d="M200,8.478C216.819,8.478 228.055,18.136 234.178,27.966C237.836,33.84 241.034,42.697 241.202,51.317C241.316,57.208 240.018,62.984 236.583,67.686C234.752,70.182 232.439,72.314 229.809,73.962C228.324,74.892 226.157,76.037 224.137,76.11C220.148,76.255 209.97,76.27 200.004,76.242C190.03,76.27 179.852,76.255 175.863,76.11C173.843,76.037 171.676,74.892 170.191,73.962C167.561,72.314 165.248,70.182 163.415,67.683C159.982,62.984 158.684,57.208 158.798,51.317C158.966,42.697 162.164,33.84 165.822,27.966C171.945,18.136 183.181,8.478 200,8.478ZM200,11.489C184.42,11.489 174.026,20.46 168.355,29.566C164.937,35.053 161.943,43.324 161.787,51.375C161.686,56.598 162.78,61.733 165.821,65.897C167.429,68.089 169.461,69.958 171.77,71.405C172.879,72.1 174.462,73.046 175.971,73.101C179.94,73.245 190.07,73.259 200.004,73.231C209.93,73.259 220.06,73.245 224.029,73.101C225.538,73.046 227.121,72.1 228.23,71.405C230.539,69.958 232.571,68.089 234.177,65.899C237.22,61.733 238.314,56.598 238.213,51.375C238.057,43.324 235.063,35.053 231.645,29.566C225.974,20.46 215.58,11.489 200,11.489Z" style="fill:rgb(14,14,11);"/>
                </g>
                <g transform="matrix(1.0072,0,0,1,-151.441,0.00032421)">
                    <path d="M176.294,77.012C177.247,81.576 179.779,85.811 184.39,87.406C189.251,89.094 194.624,89.969 200,90.016L200,90.016C205.376,89.969 210.749,89.094 215.61,87.406C220.221,85.812 222.753,81.576 223.706,77.013L223.706,77.037C224.19,74.63 224.722,69.917 223.409,67.916C222.174,66.041 219.595,64.478 217.657,63.4C212.333,60.402 206.073,59.245 200,59.196L200,59.195C193.927,59.244 187.667,60.402 182.343,63.399C180.405,64.478 177.826,66.041 176.591,67.916C175.278,69.917 175.81,74.63 176.294,77.037" style="fill:rgb(255,218,196);"/>
                </g>
                <g transform="matrix(1.0072,0,0,1,-151.441,0.00032421)">
                    <path d="M200.012,57.69L200.012,57.69C206.334,57.741 212.845,58.965 218.38,62.082C220.507,63.265 223.3,65.027 224.656,67.086C225.302,68.072 225.645,69.576 225.714,71.235C225.803,73.383 225.48,75.801 225.171,77.336C225.161,77.384 225.149,77.432 225.135,77.478C224.049,82.494 221.172,87.074 216.097,88.829C211.089,90.568 205.553,91.473 200.013,91.521L199.987,91.521L199.987,91.521C194.447,91.473 188.911,90.568 183.905,88.83C178.828,87.074 175.95,82.493 174.864,77.475C174.85,77.43 174.839,77.384 174.829,77.336C174.52,75.801 174.197,73.383 174.286,71.235C174.355,69.576 174.698,68.071 175.345,67.084C176.7,65.026 179.493,63.265 181.613,62.085C187.155,58.965 193.666,57.741 199.988,57.69L200.012,57.69ZM199.994,60.701C194.175,60.75 188.173,61.841 183.065,64.717C181.316,65.691 178.951,67.055 177.838,68.746C177.434,69.362 177.316,70.325 177.273,71.361C177.197,73.195 177.469,75.252 177.734,76.609C177.743,76.64 177.75,76.671 177.757,76.702C178.603,80.754 180.782,84.567 184.877,85.982C189.588,87.618 194.796,88.464 200.006,88.51C205.212,88.463 210.416,87.617 215.125,85.982C219.218,84.567 221.397,80.754 222.243,76.703C222.25,76.671 222.257,76.64 222.266,76.61C222.531,75.253 222.803,73.196 222.727,71.361C222.684,70.325 222.566,69.362 222.163,68.748C221.049,67.055 218.684,65.691 216.928,64.714C211.823,61.839 205.817,60.749 199.994,60.701Z" style="fill:rgb(14,14,11);"/>
                </g>
                <g id="path1640" transform="matrix(1.01763,-4.35038e-19,4.38171e-19,-1.01391,86.5435,57.5283)">
                    <path d="M-26.888,-12.11C-27.071,-12.584 -27.354,-12.759 -27.667,-12.76C-27.981,-12.761 -28.259,-12.585 -28.445,-12.107C-28.591,-11.737 -28.683,-11.136 -28.685,-10.618C-28.687,-10.088 -28.609,-9.497 -28.461,-9.122C-28.276,-8.66 -27.989,-8.471 -27.682,-8.47C-27.37,-8.469 -27.074,-8.699 -26.888,-9.167C-26.739,-9.539 -26.665,-10.087 -26.664,-10.612C-26.662,-11.133 -26.743,-11.738 -26.888,-12.11M-43.396,-12.107C-43.582,-12.585 -43.859,-12.761 -44.174,-12.76C-44.486,-12.759 -44.77,-12.584 -44.953,-12.11C-45.098,-11.738 -45.179,-11.133 -45.177,-10.612C-45.176,-10.087 -45.102,-9.539 -44.953,-9.167C-44.767,-8.699 -44.471,-8.469 -44.159,-8.47C-43.852,-8.471 -43.564,-8.66 -43.38,-9.122C-43.23,-9.497 -43.154,-10.088 -43.156,-10.618C-43.158,-11.136 -43.25,-11.737 -43.396,-12.107" style="fill:white;fill-rule:nonzero;"/>
                </g>
                <g id="path16401" serif:id="path1640" transform="matrix(1.01763,-4.35038e-19,4.38171e-19,-1.01391,86.5435,57.5283)">
                    <path d="M-26.888,-12.11C-27.071,-12.584 -27.354,-12.759 -27.667,-12.76C-27.981,-12.761 -28.259,-12.585 -28.445,-12.107C-28.591,-11.737 -28.683,-11.136 -28.685,-10.618C-28.687,-10.088 -28.609,-9.497 -28.461,-9.122C-28.276,-8.66 -27.989,-8.471 -27.682,-8.47C-27.37,-8.469 -27.074,-8.699 -26.888,-9.167C-26.739,-9.539 -26.665,-10.087 -26.664,-10.612C-26.662,-11.133 -26.743,-11.738 -26.888,-12.11M-27.624,-7.594C-29.611,-7.41 -29.608,-10.586 -29.608,-14.25C-29.608,-17.913 -29.313,-20.9 -27.569,-20.882C-25.74,-20.861 -25.505,-17.771 -25.505,-14.11C-25.505,-10.447 -25.897,-7.752 -27.624,-7.594M-43.396,-12.107C-43.582,-12.585 -43.859,-12.761 -44.174,-12.76C-44.486,-12.759 -44.77,-12.584 -44.953,-12.11C-45.098,-11.738 -45.179,-11.133 -45.177,-10.612C-45.176,-10.087 -45.102,-9.539 -44.953,-9.167C-44.767,-8.699 -44.471,-8.469 -44.159,-8.47C-43.852,-8.471 -43.564,-8.66 -43.38,-9.122C-43.23,-9.497 -43.154,-10.088 -43.156,-10.618C-43.158,-11.136 -43.25,-11.737 -43.396,-12.107M-44.217,-7.594C-45.943,-7.752 -46.336,-10.447 -46.336,-14.11C-46.336,-17.771 -46.101,-20.861 -44.271,-20.882C-42.527,-20.9 -42.232,-17.913 -42.232,-14.25C-42.232,-10.586 -42.229,-7.41 -44.217,-7.594" style="fill:rgb(14,14,11);fill-rule:nonzero;"/>
                </g>
            </g>
        </g>
    </g>
</svg>
